<svg width="289" height="207" viewBox="0 0 289 207" fill="none" xmlns="http://www.w3.org/2000/svg">
<path d="M27.354 156.063L27.1853 153.088C23.8425 153.795 16.755 155.279 15.1472 155.561C13.1375 155.914 11.4173 155.057 11.04 154.72C10.7382 154.45 3.55424 148.339 0 145.316L29.7533 143.629L32.7225 195.995C33.6155 196.303 35.4604 197.536 35.6959 200.006C35.9904 203.093 33.3206 204.439 31.6544 204.533C29.9882 204.627 27.9828 202.95 27.603 200.464C27.2992 198.476 29.1439 196.755 30.1042 196.144L29.7465 189.836C28.3963 190.589 25.2422 192.097 23.4278 192.105C21.1598 192.114 10.2455 182.823 10.7866 181.837C11.5387 180.362 14.4601 179.241 15.1741 179.2C15.8882 179.16 16.7821 180.184 18.1654 181.419C19.5488 182.654 21.3677 183.147 23.1664 183.284C24.9651 183.421 27.727 181.593 28.7441 180.58C29.5578 179.77 29.1429 178.488 28.8337 177.948C26.8906 178.775 22.6951 180.445 21.4573 180.516C20.2196 180.586 10.9527 172.833 6.47392 168.948C7.17001 168.59 9.26141 167.572 12.0583 166.363C15.8109 171.478 17.6188 171.779 22.2334 171.039C25.925 170.448 27.6262 168.584 28.0153 167.727L27.8871 165.465C25.3954 166.442 19.8142 168.383 17.4231 168.327C15.0321 168.272 7.13403 160.234 3.48388 156.223C4.95765 155.542 8.31975 154.755 9.97808 157.048C11.6364 159.342 14.4043 159.305 15.5809 158.999L27.354 156.063Z" fill="#FA991C"/>
<path d="M76.8374 137.872C76.703 134.854 38.423 138.874 20.7608 140.369L82.0713 131.387L81.885 173.032L46.8092 186.097C56.0936 181.599 78.4206 173.421 78.249 169.568L76.8374 137.872Z" fill="#FA991C"/>
<path d="M73.8885 140.768L31.4277 143.653L31.9338 152.579L74.0909 144.338L73.8885 140.768Z" fill="#FA991C"/>
<path d="M74.2799 147.671L32.1092 155.673L32.6153 164.599L74.543 152.312L74.2799 147.671Z" fill="#FA991C"/>
<path d="M74.9479 159.453L33.2767 176.263C32.8527 173.7 32.1608 168.374 32.784 167.575C33.4073 166.775 60.9685 158.574 74.6712 154.573L74.9479 159.453Z" fill="#FA991C"/>
<path d="M73.8326 167.158C73.0979 167.677 46.912 180.902 33.911 187.45C33.7065 185.949 33.3459 182.539 33.5398 180.904C33.7337 179.269 34.8001 178.564 35.309 178.416L74.746 162.211L74.9147 165.186C74.9755 166.257 74.7509 166.508 73.8326 167.158Z" fill="#FA991C"/>
<ellipse cx="31.6423" cy="200.116" rx="2.02648" ry="2.02648" transform="rotate(-3.24517 31.6423 200.116)" fill="white"/>
<path d="M22.5859 58.3438V101H12.6172V58.3438H22.5859ZM50.0234 101L39.5234 66.2188V101H31.1484V58.3438H46.7109L54.1797 83.875L62.0547 58.3438H77.6484V101H67.5859V66.2188L56.8672 101H50.0234ZM96.3672 85.1562V101H86.2109V58.3438H103.023C106.773 58.3438 109.638 58.75 111.617 59.5625C113.617 60.3542 115.398 61.7812 116.961 63.8438C118.523 65.9062 119.305 68.4375 119.305 71.4375C119.305 73.5417 118.888 75.5938 118.055 77.5938C117.221 79.5938 116.044 81.1667 114.523 82.3125C113.003 83.4583 111.523 84.2188 110.086 84.5938C108.669 84.9688 106.44 85.1562 103.398 85.1562H96.3672ZM96.0234 77.4062H102.523C105.003 77.4062 106.742 76.8333 107.742 75.6875C108.742 74.5417 109.242 73.2292 109.242 71.75C109.242 70.0208 108.68 68.6458 107.555 67.625C106.451 66.6042 104.763 66.0938 102.492 66.0938H96.0234V77.4062ZM155.336 66.4688H134.992V75.2188H150.992V83.25H134.992V92.5625H155.336V101H124.836V58.3438H155.336V66.4688ZM171.43 84.0938V101H161.367V58.3438H180.117C183.576 58.3438 186.346 58.75 188.43 59.5625C190.534 60.3542 192.273 61.8229 193.648 63.9688C195.023 66.1146 195.711 68.5 195.711 71.125C195.711 76.25 193.242 79.9271 188.305 82.1562L196.18 101H185.148L178.586 84.0938H171.43ZM171.43 65.9375V76.8125H177.555C179.555 76.8125 181.003 76.6771 181.898 76.4062C182.815 76.1146 183.628 75.4896 184.336 74.5312C185.044 73.5521 185.398 72.4375 185.398 71.1875C185.398 70 185.044 68.9375 184.336 68C183.628 67.0625 182.857 66.4896 182.023 66.2812C181.19 66.0521 179.628 65.9375 177.336 65.9375H171.43ZM213.398 58.3438V101H203.43V58.3438H213.398ZM242.961 58.3438L256.305 101H245.555L242.961 92.2188H229.148L226.461 101H217.711L231.367 58.3438H242.961ZM231.555 84.3438H240.617L236.086 69.375L231.555 84.3438ZM271.055 92.5625H288.023V101H260.93V58.3438H271.055V92.5625ZM80.6172 131.344H100.492C104.055 131.344 106.732 131.781 108.523 132.656C110.315 133.531 111.794 134.781 112.961 136.406C114.128 138.031 114.711 140.01 114.711 142.344C114.711 147.073 112.148 150.229 107.023 151.812C109.982 152.479 112.201 153.802 113.68 155.781C115.159 157.76 115.898 159.917 115.898 162.25C115.898 165.438 114.69 168.198 112.273 170.531C109.857 172.844 105.93 174 100.492 174H80.6172V131.344ZM90.5859 138.875V148.219H98.1484C100.919 148.219 102.659 147.677 103.367 146.594C104.096 145.49 104.461 144.438 104.461 143.438C104.461 142.354 104.159 141.427 103.555 140.656C102.971 139.865 102.326 139.375 101.617 139.188C100.909 138.979 99.513 138.875 97.4297 138.875H90.5859ZM90.5859 155.812V166.094H98.2734C100.898 166.094 102.753 165.635 103.836 164.719C104.919 163.802 105.461 162.521 105.461 160.875C105.461 159.5 104.94 158.312 103.898 157.312C102.857 156.312 101.128 155.812 98.7109 155.812H90.5859ZM132.43 165.562H149.398V174H122.305V131.344H132.43V165.562ZM164.523 131.344V174H154.555V131.344H164.523ZM205.961 131.344V174H197.43L180.711 145.188C180.732 145.917 180.753 146.396 180.773 146.625C180.857 147.354 180.898 147.969 180.898 148.469V174H173.117V131.344H183.898L198.43 156.5C198.305 155.25 198.242 154.302 198.242 153.656V131.344H205.961ZM214.492 131.344H227.523C232.836 131.344 236.794 132.083 239.398 133.562C242.003 135.021 244.336 137.344 246.398 140.531C248.461 143.698 249.492 147.708 249.492 152.562C249.492 158.667 247.69 163.771 244.086 167.875C240.482 171.958 235.513 174 229.18 174H214.492V131.344ZM224.305 139.188V165.969H228.43C232.076 165.969 234.784 164.615 236.555 161.906C238.326 159.177 239.211 155.979 239.211 152.312C239.211 149.729 238.701 147.344 237.68 145.156C236.68 142.948 235.43 141.406 233.93 140.531C232.43 139.635 230.628 139.188 228.523 139.188H224.305ZM285.461 140.719L276.961 143.562C275.815 140.188 273.388 138.5 269.68 138.5C265.721 138.5 263.742 139.781 263.742 142.344C263.742 143.365 264.107 144.229 264.836 144.938C265.586 145.646 267.263 146.26 269.867 146.781C274.221 147.656 277.409 148.542 279.43 149.438C281.451 150.333 283.148 151.781 284.523 153.781C285.919 155.76 286.617 157.979 286.617 160.438C286.617 164.292 285.128 167.625 282.148 170.438C279.19 173.25 274.794 174.656 268.961 174.656C264.586 174.656 260.857 173.667 257.773 171.688C254.711 169.688 252.69 166.729 251.711 162.812L260.961 160.719C262.003 164.698 264.898 166.688 269.648 166.688C271.94 166.688 273.648 166.25 274.773 165.375C275.898 164.479 276.461 163.417 276.461 162.188C276.461 160.938 275.951 159.969 274.93 159.281C273.909 158.594 271.94 157.948 269.023 157.344C263.586 156.219 259.711 154.688 257.398 152.75C255.086 150.792 253.93 147.938 253.93 144.188C253.93 140.396 255.305 137.198 258.055 134.594C260.826 131.99 264.576 130.688 269.305 130.688C277.68 130.688 283.065 134.031 285.461 140.719Z" fill="#FA991C"/>
<path d="M27.354 114.063L27.1853 111.088C23.8425 111.795 16.755 113.279 15.1472 113.561C13.1375 113.914 11.4173 113.057 11.04 112.72C10.7382 112.45 3.55424 106.339 0 103.316L29.7533 101.629L32.7225 153.995C33.6155 154.303 35.4604 155.536 35.6959 158.006C35.9904 161.093 33.3206 162.439 31.6544 162.533C29.9882 162.627 27.9828 160.95 27.603 158.464C27.2992 156.476 29.1439 154.755 30.1042 154.144L29.7465 147.836C28.3963 148.589 25.2422 150.097 23.4278 150.105C21.1598 150.114 10.2455 140.823 10.7866 139.837C11.5387 138.362 14.4601 137.241 15.1741 137.2C15.8882 137.16 16.7821 138.184 18.1654 139.419C19.5488 140.654 21.3677 141.147 23.1664 141.284C24.9651 141.421 27.727 139.593 28.7441 138.58C29.5578 137.77 29.1429 136.488 28.8337 135.948C26.8906 136.775 22.6951 138.445 21.4573 138.516C20.2196 138.586 10.9527 130.833 6.47392 126.948C7.17001 126.59 9.26141 125.572 12.0583 124.363C15.8109 129.478 17.6188 129.779 22.2334 129.039C25.925 128.448 27.6262 126.584 28.0153 125.727L27.8871 123.465C25.3954 124.442 19.8142 126.383 17.4231 126.327C15.0321 126.272 7.13403 118.234 3.48388 114.223C4.95765 113.542 8.31975 112.755 9.97808 115.048C11.6364 117.342 14.4043 117.305 15.5809 116.999L27.354 114.063Z" fill="#032539"/>
<path d="M76.8374 95.8718C76.703 92.8538 38.423 96.8741 20.7608 98.3692L82.0713 89.387L81.885 131.032L46.8092 144.097C56.0936 139.599 78.4206 131.421 78.249 127.568L76.8374 95.8718Z" fill="#032539"/>
<path d="M73.8885 98.7679L31.4277 101.653L31.9338 110.579L74.0909 102.338L73.8885 98.7679Z" fill="#032539"/>
<path d="M74.2799 105.671L32.1092 113.673L32.6153 122.599L74.543 110.312L74.2799 105.671Z" fill="#032539"/>
<path d="M74.9479 117.453L33.2767 134.263C32.8527 131.7 32.1608 126.374 32.784 125.575C33.4073 124.775 60.9685 116.574 74.6712 112.573L74.9479 117.453Z" fill="#032539"/>
<path d="M73.8326 125.158C73.0979 125.677 46.912 138.902 33.911 145.45C33.7065 143.949 33.3459 140.539 33.5398 138.904C33.7337 137.269 34.8001 136.564 35.309 136.416L74.746 120.211L74.9147 123.186C74.9755 124.257 74.7509 124.508 73.8326 125.158Z" fill="#032539"/>
<ellipse cx="31.6423" cy="158.116" rx="2.02648" ry="2.02648" transform="rotate(-3.24517 31.6423 158.116)" fill="white"/>
<path d="M22.5859 16.3438V59H12.6172V16.3438H22.5859ZM50.0234 59L39.5234 24.2188V59H31.1484V16.3438H46.7109L54.1797 41.875L62.0547 16.3438H77.6484V59H67.5859V24.2188L56.8672 59H50.0234ZM96.3672 43.1562V59H86.2109V16.3438H103.023C106.773 16.3438 109.638 16.75 111.617 17.5625C113.617 18.3542 115.398 19.7812 116.961 21.8438C118.523 23.9062 119.305 26.4375 119.305 29.4375C119.305 31.5417 118.888 33.5938 118.055 35.5938C117.221 37.5938 116.044 39.1667 114.523 40.3125C113.003 41.4583 111.523 42.2188 110.086 42.5938C108.669 42.9688 106.44 43.1562 103.398 43.1562H96.3672ZM96.0234 35.4062H102.523C105.003 35.4062 106.742 34.8333 107.742 33.6875C108.742 32.5417 109.242 31.2292 109.242 29.75C109.242 28.0208 108.68 26.6458 107.555 25.625C106.451 24.6042 104.763 24.0938 102.492 24.0938H96.0234V35.4062ZM155.336 24.4688H134.992V33.2188H150.992V41.25H134.992V50.5625H155.336V59H124.836V16.3438H155.336V24.4688ZM171.43 42.0938V59H161.367V16.3438H180.117C183.576 16.3438 186.346 16.75 188.43 17.5625C190.534 18.3542 192.273 19.8229 193.648 21.9688C195.023 24.1146 195.711 26.5 195.711 29.125C195.711 34.25 193.242 37.9271 188.305 40.1562L196.18 59H185.148L178.586 42.0938H171.43ZM171.43 23.9375V34.8125H177.555C179.555 34.8125 181.003 34.6771 181.898 34.4062C182.815 34.1146 183.628 33.4896 184.336 32.5312C185.044 31.5521 185.398 30.4375 185.398 29.1875C185.398 28 185.044 26.9375 184.336 26C183.628 25.0625 182.857 24.4896 182.023 24.2812C181.19 24.0521 179.628 23.9375 177.336 23.9375H171.43ZM213.398 16.3438V59H203.43V16.3438H213.398ZM242.961 16.3438L256.305 59H245.555L242.961 50.2188H229.148L226.461 59H217.711L231.367 16.3438H242.961ZM231.555 42.3438H240.617L236.086 27.375L231.555 42.3438ZM271.055 50.5625H288.023V59H260.93V16.3438H271.055V50.5625ZM80.6172 89.3438H100.492C104.055 89.3438 106.732 89.7812 108.523 90.6562C110.315 91.5312 111.794 92.7812 112.961 94.4062C114.128 96.0312 114.711 98.0104 114.711 100.344C114.711 105.073 112.148 108.229 107.023 109.812C109.982 110.479 112.201 111.802 113.68 113.781C115.159 115.76 115.898 117.917 115.898 120.25C115.898 123.438 114.69 126.198 112.273 128.531C109.857 130.844 105.93 132 100.492 132H80.6172V89.3438ZM90.5859 96.875V106.219H98.1484C100.919 106.219 102.659 105.677 103.367 104.594C104.096 103.49 104.461 102.438 104.461 101.438C104.461 100.354 104.159 99.4271 103.555 98.6562C102.971 97.8646 102.326 97.375 101.617 97.1875C100.909 96.9792 99.513 96.875 97.4297 96.875H90.5859ZM90.5859 113.812V124.094H98.2734C100.898 124.094 102.753 123.635 103.836 122.719C104.919 121.802 105.461 120.521 105.461 118.875C105.461 117.5 104.94 116.312 103.898 115.312C102.857 114.312 101.128 113.812 98.7109 113.812H90.5859ZM132.43 123.562H149.398V132H122.305V89.3438H132.43V123.562ZM164.523 89.3438V132H154.555V89.3438H164.523ZM205.961 89.3438V132H197.43L180.711 103.188C180.732 103.917 180.753 104.396 180.773 104.625C180.857 105.354 180.898 105.969 180.898 106.469V132H173.117V89.3438H183.898L198.43 114.5C198.305 113.25 198.242 112.302 198.242 111.656V89.3438H205.961ZM214.492 89.3438H227.523C232.836 89.3438 236.794 90.0833 239.398 91.5625C242.003 93.0208 244.336 95.3438 246.398 98.5312C248.461 101.698 249.492 105.708 249.492 110.562C249.492 116.667 247.69 121.771 244.086 125.875C240.482 129.958 235.513 132 229.18 132H214.492V89.3438ZM224.305 97.1875V123.969H228.43C232.076 123.969 234.784 122.615 236.555 119.906C238.326 117.177 239.211 113.979 239.211 110.312C239.211 107.729 238.701 105.344 237.68 103.156C236.68 100.948 235.43 99.4062 233.93 98.5312C232.43 97.6354 230.628 97.1875 228.523 97.1875H224.305ZM285.461 98.7188L276.961 101.562C275.815 98.1875 273.388 96.5 269.68 96.5C265.721 96.5 263.742 97.7812 263.742 100.344C263.742 101.365 264.107 102.229 264.836 102.938C265.586 103.646 267.263 104.26 269.867 104.781C274.221 105.656 277.409 106.542 279.43 107.438C281.451 108.333 283.148 109.781 284.523 111.781C285.919 113.76 286.617 115.979 286.617 118.438C286.617 122.292 285.128 125.625 282.148 128.438C279.19 131.25 274.794 132.656 268.961 132.656C264.586 132.656 260.857 131.667 257.773 129.688C254.711 127.688 252.69 124.729 251.711 120.812L260.961 118.719C262.003 122.698 264.898 124.688 269.648 124.688C271.94 124.688 273.648 124.25 274.773 123.375C275.898 122.479 276.461 121.417 276.461 120.188C276.461 118.938 275.951 117.969 274.93 117.281C273.909 116.594 271.94 115.948 269.023 115.344C263.586 114.219 259.711 112.688 257.398 110.75C255.086 108.792 253.93 105.938 253.93 102.188C253.93 98.3958 255.305 95.1979 258.055 92.5938C260.826 89.9896 264.576 88.6875 269.305 88.6875C277.68 88.6875 283.065 92.0312 285.461 98.7188Z" fill="#032539"/>
</svg>
