<svg width="50" height="50" viewBox="0 0 50 50" fill="none" xmlns="http://www.w3.org/2000/svg">
<path d="M11.4199 4.15082C11.2355 3.91352 11.0026 3.71818 10.7368 3.57779C10.4711 3.43739 10.1785 3.35515 9.87847 3.33653C9.57848 3.31791 9.27795 3.36334 8.99686 3.46979C8.71577 3.57624 8.46055 3.74128 8.24814 3.95395L5.01697 7.18825C3.50764 8.70071 2.9514 10.8413 3.61076 12.7194C6.35047 20.4914 10.8017 27.5484 16.6354 33.3689C22.4559 39.2026 29.5129 43.6538 37.2849 46.3935C39.163 47.0529 41.3036 46.4967 42.816 44.9873L46.0472 41.7562C46.2599 41.5437 46.4249 41.2885 46.5314 41.0074C46.6378 40.7263 46.6833 40.4258 46.6646 40.1258C46.646 39.8258 46.5638 39.5332 46.4234 39.2675C46.283 39.0017 46.0876 38.7688 45.8503 38.5844L38.6411 32.9782C38.3874 32.782 38.0925 32.6458 37.7786 32.5798C37.4647 32.5137 37.14 32.5196 36.8287 32.597L29.9851 34.3063C29.0716 34.5331 28.1149 34.5202 27.2078 34.2689C26.3007 34.0177 25.4738 33.5365 24.8071 32.872L17.1323 25.1941C16.4673 24.5277 15.9855 23.7009 15.7337 22.7938C15.4818 21.8867 15.4685 20.9299 15.6948 20.0161L17.4073 13.1725C17.4847 12.8612 17.4906 12.5364 17.4245 12.2225C17.3585 11.9086 17.2223 11.6138 17.0261 11.36L11.4199 4.15082ZM5.88883 1.59776C6.43567 1.05074 7.09263 0.626314 7.81609 0.352667C8.53954 0.0790202 9.31294 -0.0375874 10.0849 0.0105874C10.8569 0.0587621 11.6098 0.270617 12.2936 0.632084C12.9774 0.993551 13.5765 1.49636 14.0511 2.10712L19.6572 9.31319C20.6853 10.635 21.0478 12.3569 20.6416 13.9818L18.9323 20.8254C18.8445 21.1799 18.8496 21.551 18.947 21.903C19.0444 22.2549 19.2309 22.5758 19.4885 22.8347L27.1664 30.5127C27.4256 30.7708 27.7471 30.9576 28.0996 31.055C28.4522 31.1525 28.8239 31.1572 29.1789 31.0689L36.0193 29.3596C36.8213 29.1602 37.6581 29.1453 38.4667 29.3157C39.2753 29.4862 40.0347 29.8378 40.688 30.3439L47.894 35.95C50.4846 37.9656 50.7221 41.7937 48.4034 44.1092L45.1722 47.3404C42.8598 49.6528 39.4036 50.6684 36.1818 49.5341C27.9341 46.636 20.4464 41.9148 14.2761 35.7219C8.08369 29.5525 3.36249 22.0659 0.46396 13.8193C-0.667262 10.6007 0.348338 7.14137 2.66078 4.82893L5.88883 1.59776Z" fill="#032539"/>
</svg>
