<svg width="287" height="164" viewBox="0 0 287 164" fill="none" xmlns="http://www.w3.org/2000/svg">
<path d="M27.354 113.676L27.1853 110.701C23.8425 111.408 16.755 112.892 15.1472 113.174C13.1375 113.527 11.4173 112.67 11.04 112.333C10.7382 112.063 3.55424 105.952 0 102.929L29.7533 101.242L32.7225 153.608C33.6155 153.916 35.4604 155.149 35.6959 157.619C35.9904 160.706 33.3206 162.052 31.6544 162.146C29.9882 162.241 27.9828 160.563 27.603 158.077C27.2992 156.089 29.1439 154.368 30.1042 153.757L29.7465 147.449C28.3963 148.202 25.2422 149.71 23.4278 149.718C21.1598 149.727 10.2455 140.436 10.7866 139.45C11.5387 137.975 14.4601 136.854 15.1741 136.813C15.8882 136.773 16.7821 137.797 18.1654 139.032C19.5488 140.267 21.3677 140.76 23.1664 140.897C24.9651 141.034 27.727 139.206 28.7441 138.193C29.5578 137.383 29.1429 136.101 28.8337 135.561C26.8906 136.388 22.6951 138.058 21.4573 138.129C20.2196 138.199 10.9527 130.446 6.47392 126.561C7.17001 126.203 9.26141 125.185 12.0583 123.976C15.8109 129.091 17.6188 129.392 22.2334 128.652C25.925 128.061 27.6262 126.197 28.0153 125.34L27.8871 123.078C25.3954 124.055 19.8142 125.996 17.4231 125.94C15.0321 125.885 7.13403 117.847 3.48388 113.836C4.95765 113.155 8.31975 112.368 9.97808 114.661C11.6364 116.955 14.4043 116.918 15.5809 116.612L27.354 113.676Z" fill="white"/>
<path d="M76.8374 95.4849C76.703 92.4668 38.423 96.4871 20.7608 97.9823L82.0713 89.0001L81.885 130.645L46.8092 143.71C56.0936 139.212 78.4206 131.034 78.249 127.181L76.8374 95.4849Z" fill="white"/>
<path d="M73.8885 98.3809L31.4277 101.266L31.9338 110.192L74.0909 101.951L73.8885 98.3809Z" fill="white"/>
<path d="M74.2799 105.284L32.1092 113.286L32.6153 122.212L74.543 109.925L74.2799 105.284Z" fill="white"/>
<path d="M74.9479 117.066L33.2767 133.876C32.8527 131.313 32.1608 125.987 32.784 125.188C33.4073 124.388 60.9685 116.187 74.6712 112.186L74.9479 117.066Z" fill="white"/>
<path d="M73.8326 124.771C73.0979 125.29 46.912 138.515 33.911 145.063C33.7065 143.562 33.3459 140.152 33.5398 138.517C33.7337 136.882 34.8001 136.177 35.309 136.029L74.746 119.824L74.9147 122.799C74.9755 123.87 74.7509 124.122 73.8326 124.771Z" fill="white"/>
<ellipse cx="31.6423" cy="157.729" rx="2.02648" ry="2.02648" transform="rotate(-3.24517 31.6423 157.729)" fill="white"/>
<path d="M20.5864 16.3438V59H10.6177V16.3438H20.5864ZM48.0239 59L37.5239 24.2188V59H29.1489V16.3438H44.7114L52.1802 41.875L60.0552 16.3438H75.6489V59H65.5864V24.2188L54.8677 59H48.0239ZM94.3677 43.1562V59H84.2114V16.3438H101.024C104.774 16.3438 107.639 16.75 109.618 17.5625C111.618 18.3542 113.399 19.7812 114.961 21.8438C116.524 23.9062 117.305 26.4375 117.305 29.4375C117.305 31.5417 116.889 33.5938 116.055 35.5938C115.222 37.5938 114.045 39.1667 112.524 40.3125C111.003 41.4583 109.524 42.2188 108.086 42.5938C106.67 42.9688 104.441 43.1562 101.399 43.1562H94.3677ZM94.0239 35.4062H100.524C103.003 35.4062 104.743 34.8333 105.743 33.6875C106.743 32.5417 107.243 31.2292 107.243 29.75C107.243 28.0208 106.68 26.6458 105.555 25.625C104.451 24.6042 102.764 24.0938 100.493 24.0938H94.0239V35.4062ZM153.336 24.4688H132.993V33.2188H148.993V41.25H132.993V50.5625H153.336V59H122.836V16.3438H153.336V24.4688ZM169.43 42.0938V59H159.368V16.3438H178.118C181.576 16.3438 184.347 16.75 186.43 17.5625C188.534 18.3542 190.274 19.8229 191.649 21.9688C193.024 24.1146 193.711 26.5 193.711 29.125C193.711 34.25 191.243 37.9271 186.305 40.1562L194.18 59H183.149L176.586 42.0938H169.43ZM169.43 23.9375V34.8125H175.555C177.555 34.8125 179.003 34.6771 179.899 34.4062C180.816 34.1146 181.628 33.4896 182.336 32.5312C183.045 31.5521 183.399 30.4375 183.399 29.1875C183.399 28 183.045 26.9375 182.336 26C181.628 25.0625 180.857 24.4896 180.024 24.2812C179.191 24.0521 177.628 23.9375 175.336 23.9375H169.43ZM211.399 16.3438V59H201.43V16.3438H211.399ZM240.961 16.3438L254.305 59H243.555L240.961 50.2188H227.149L224.461 59H215.711L229.368 16.3438H240.961ZM229.555 42.3438H238.618L234.086 27.375L229.555 42.3438ZM269.055 50.5625H286.024V59H258.93V16.3438H269.055V50.5625ZM78.6177 89.3438H98.4927C102.055 89.3438 104.732 89.7812 106.524 90.6562C108.316 91.5312 109.795 92.7812 110.961 94.4062C112.128 96.0312 112.711 98.0104 112.711 100.344C112.711 105.073 110.149 108.229 105.024 109.812C107.982 110.479 110.201 111.802 111.68 113.781C113.159 115.76 113.899 117.917 113.899 120.25C113.899 123.438 112.691 126.198 110.274 128.531C107.857 130.844 103.93 132 98.4927 132H78.6177V89.3438ZM88.5864 96.875V106.219H96.1489C98.9198 106.219 100.659 105.677 101.368 104.594C102.097 103.49 102.461 102.438 102.461 101.438C102.461 100.354 102.159 99.4271 101.555 98.6562C100.972 97.8646 100.326 97.375 99.6177 97.1875C98.9093 96.9792 97.5135 96.875 95.4302 96.875H88.5864ZM88.5864 113.812V124.094H96.2739C98.8989 124.094 100.753 123.635 101.836 122.719C102.92 121.802 103.461 120.521 103.461 118.875C103.461 117.5 102.941 116.312 101.899 115.312C100.857 114.312 99.1281 113.812 96.7114 113.812H88.5864ZM130.43 123.562H147.399V132H120.305V89.3438H130.43V123.562ZM162.524 89.3438V132H152.555V89.3438H162.524ZM203.961 89.3438V132H195.43L178.711 103.188C178.732 103.917 178.753 104.396 178.774 104.625C178.857 105.354 178.899 105.969 178.899 106.469V132H171.118V89.3438H181.899L196.43 114.5C196.305 113.25 196.243 112.302 196.243 111.656V89.3438H203.961ZM212.493 89.3438H225.524C230.836 89.3438 234.795 90.0833 237.399 91.5625C240.003 93.0208 242.336 95.3438 244.399 98.5312C246.461 101.698 247.493 105.708 247.493 110.562C247.493 116.667 245.691 121.771 242.086 125.875C238.482 129.958 233.514 132 227.18 132H212.493V89.3438ZM222.305 97.1875V123.969H226.43C230.076 123.969 232.784 122.615 234.555 119.906C236.326 117.177 237.211 113.979 237.211 110.312C237.211 107.729 236.701 105.344 235.68 103.156C234.68 100.948 233.43 99.4062 231.93 98.5312C230.43 97.6354 228.628 97.1875 226.524 97.1875H222.305ZM283.461 98.7188L274.961 101.562C273.816 98.1875 271.389 96.5 267.68 96.5C263.722 96.5 261.743 97.7812 261.743 100.344C261.743 101.365 262.107 102.229 262.836 102.938C263.586 103.646 265.264 104.26 267.868 104.781C272.222 105.656 275.409 106.542 277.43 107.438C279.451 108.333 281.149 109.781 282.524 111.781C283.92 113.76 284.618 115.979 284.618 118.438C284.618 122.292 283.128 125.625 280.149 128.438C277.191 131.25 272.795 132.656 266.961 132.656C262.586 132.656 258.857 131.667 255.774 129.688C252.711 127.688 250.691 124.729 249.711 120.812L258.961 118.719C260.003 122.698 262.899 124.688 267.649 124.688C269.941 124.688 271.649 124.25 272.774 123.375C273.899 122.479 274.461 121.417 274.461 120.188C274.461 118.938 273.951 117.969 272.93 117.281C271.909 116.594 269.941 115.948 267.024 115.344C261.586 114.219 257.711 112.688 255.399 110.75C253.086 108.792 251.93 105.938 251.93 102.188C251.93 98.3958 253.305 95.1979 256.055 92.5938C258.826 89.9896 262.576 88.6875 267.305 88.6875C275.68 88.6875 281.066 92.0312 283.461 98.7188Z" fill="white"/>
</svg>
